<svg xmlns="http://www.w3.org/2000/svg" xmlns:xlink="http://www.w3.org/1999/xlink" x="0" y="0" version="1.1" viewBox="0 0 320 312" xml:space="preserve" style="enable-background:new 0 0 320 312"><style type="text/css">.st0{fill:url(#SVGID_1_);stroke:url(#SVGID_2_);stroke-width:25;stroke-miterlimit:10}.st1{fill:url(#SVGID_3_)}.st2{fill:url(#SVGID_4_)}</style><g id="Layer_3"><linearGradient id="SVGID_1_" x1="159.204" x2="159.204" y1="272.519" y2="20.017" gradientUnits="userSpaceOnUse"><stop offset="0" style="stop-color:#17171d"/><stop offset="1" style="stop-color:#323440"/></linearGradient><linearGradient id="SVGID_2_" x1="159.204" x2="159.204" y1="297.274" y2="7.517" gradientUnits="userSpaceOnUse"><stop offset="0" style="stop-color:#babdc5"/><stop offset="1" style="stop-color:#e8eaed"/></linearGradient><path d="M26.1,123.6l-0.9-64.2C24.8,38.1,42,20.6,63.3,20.6L259.2,20c18.2-0.1,32.9,14.6,33.1,32.7l1,135.7 c0.1,16.1-12.9,29.3-29,29.3h-94.4l-75.6,54.8l0.7-54.8H62c-18.7,0-34-15-34.5-33.7L26.1,123.6z" class="st0"/></g><g id="Layer_2"><linearGradient id="SVGID_3_" x1="206" x2="206" y1="133.853" y2="112.103" gradientUnits="userSpaceOnUse"><stop offset="0" style="stop-color:#3884c4"/><stop offset="1" style="stop-color:#62a6da"/></linearGradient><circle cx="206" cy="123" r="10.9" class="st1"/><g><linearGradient id="SVGID_4_" x1="151.128" x2="151.128" y1="174.227" y2="65.79" gradientUnits="userSpaceOnUse"><stop offset="0" style="stop-color:#6ba643"/><stop offset="1" style="stop-color:#a6ce39"/></linearGradient><path d="M125.3,174.2l-2.6-1.3l-2.6-1.3l-2.6-2.6l-1.3-2.6l-1.3-2.6v-5.2l1.3-2.6l1.3-2.6l1.3-2.6l1.3-2.6l1.3-2.6 l1.3-2.6l1.3-2.6l1.3-2.6l1.3-2.6l1.3-2.6l1.3-2.6l1.3-2.6l1.3-2.6l1.3-2.6l1.3-2.6l-1.3-2.6l-1.3-2.6l-1.3-2.6l-1.3-2.6l-1.3-2.6 l-1.3-2.6l-1.3-2.6l-1.3-2.6l-1.3-2.6l-1.3-2.6l-1.3-2.6l-1.3-2.6l-1.3-2.6l-1.3-2.6l-1.3-2.6v-5.2l1.3-2.6l1.3-2.6l2.6-2.6 l2.6-1.3l2.6-1.3h5.2l2.6,1.3l2.6,1.3l2.6,2.6l1.3,2.6l1.3,2.6l1.3,2.6l1.3,2.6l1.3,2.6l1.3,2.6l1.3,2.6l1.3,2.6l1.3,2.6l1.3,2.6 l1.3-2.6l1.3-2.6L155,89l1.3-2.6l1.3-2.6l1.3-2.6l1.3-2.6l1.3-2.6l1.3-2.6L164,71l2.6-2.6l2.6-1.3l2.6-1.3h5.2l2.6,1.3l2.6,1.3 l2.6,2.6l1.3,2.6l1.3,2.6v5.2l-1.3,2.6l-1.3,2.6l-1.3,2.6l-1.3,2.6l-1.3,2.6l-1.3,2.6l-1.3,2.6l-1.3,2.6l-1.3,2.6l-1.3,2.6 l-1.3,2.6l-1.3,2.6l-1.3,2.6l-1.3,2.6l-1.3,2.6l1.3,2.6l1.3,2.6l1.3,2.6l1.3,2.6l1.3,2.6l1.3,2.6l1.3,2.6l1.3,2.6l1.3,2.6l1.3,2.6 l1.3,2.6l1.3,2.6l1.3,2.6l1.3,2.6l1.3,2.6v5.2l-1.3,2.6l-1.3,2.6l-2.6,2.6l-2.6,1.3l-2.6,1.3h-5.2l-2.6-1.3l-2.6-1.3l-2.6-2.6 l-1.3-2.6l-1.3-2.6l-1.3-2.6l-1.3-2.6l-1.3-2.6l-1.3-2.6L155,151l-1.3-2.6l-1.3-2.6l-1.3-2.6l-1.3,2.6l-1.3,2.6l-1.3,2.6l-1.3,2.6 l-1.3,2.6l-1.3,2.6l-1.3,2.6l-1.3,2.6l-1.3,2.6l-1.3,2.6l-2.6,2.6l-2.6,1.3l-2.6,1.3H125.3z" class="st2"/></g></g></svg>